<?xml version="1.0"?>
<svg version="1.1" xmlns="http://www.w3.org/2000/svg" width="75" height="36" style=""><path fill="#f0c2e2" d="M30.82,21.44q-0.74,0.3-1.27,0.3t-0.53-0.22q0-0.14,0.59-0.16t0.85-0.14q0.76-0.4,0.76-1.18q0-0.4-0.22-0.84q-0.64-1.14-3.1-1.14q-1.42,0-2.84,0.43t-2.38,1.32t-0.96,1.65q0,1.16,2.3,1.7l2.36,0.44q1.42,0.26,2.12,0.72q0.92,0.56,0.92,1.6q0,0.42-0.14,0.9q-0.64,2.16-3.3,3.3q-2.22,0.98-5.24,0.98q-0.86,0-1.5-0.08q0.64,0.36,1.68,0.62q0.08,0.02,0.08,0.08q0,0.18-0.42,0.18q-0.82,0-2.04-0.98q-1.66-0.26-2.48-0.92q-0.52-0.42-0.96-1.24t-0.44-1.48t0.26-1.1q0.6-1.06,1.52-1.06q0.7,0,0.82,1.18q0.28,2.28,0.38,2.6q0.3,0.98,1.02,1.66q0.84,0.18,1.82,0.18q2.16,0,4.24-0.86t3-2.44q0.38-0.62,0.38-1.1q0-0.94-1.66-1.46l-3.52-0.8q-1.08-0.26-1.73-0.86t-0.65-1.38q0-1.2,1.5-2.4q1.14-0.92,2.79-1.43t3.24-0.51t2.63,0.46q1.34,0.62,1.34,1.81t-1.22,1.67z M17.94,30.36q-1.16-1.28-1.48-3.5q-0.18-1.26-0.34-1.26t-0.3,0.09t-0.28,0.39t-0.14,0.78q0,1.54,1.08,2.64q0.54,0.56,1.46,0.86z M37.4834,24.02l0.28-0.06q0.22,0,0.42,0.18t0.2,0.28t-1.24,1.93t-1.24,2.55q0,0.06,0.02,0.12q0.1,0.46,0.44,0.46q1.04,0,3.8-3.44q0.06-0.08,0.14-0.08t0.08,0.15t-0.18,0.39q-2.56,3.42-3.9,3.42q-0.18,0-0.34-0.06q-0.88-0.34-0.88-1.32q0-0.34,0.08-0.68l-1.24,1.2q-1.18,1.04-1.71,1.04t-1.01-0.34q-0.54-0.4-0.54-1.06q0-1.46,2.04-3.49t3.74-2.03q0.66,0,0.88,0.46q0.06,0.16,0.1,0.27t0.06,0.11z M31.5034,28.94q0,0.72,0.5,0.72q1.16,0,3.16-2.54l2.12-2.92q-0.16-0.28-0.52-0.28q-1.22,0-3.24,1.89t-2.02,3.13z M41.4068,29.6q0.66,0,1.7-0.7t2.02-1.9q0.24-0.32,0.38-0.32t0.14,0.12t-0.82,1.04q-2,2.2-3.34,2.2q-0.66,0-1.12-0.31t-0.46-0.96t0.34-1.51q0.58-1.36,1.86-3.42q2.34-3.8,3.32-3.8q0.2,0,0.41,0.15t0.23,0.33q-0.46,0.62-1.77,2.38t-1.81,2.53t-0.75,1.15t-0.37,0.59t-0.28,0.55q-0.34,0.68-0.34,1.28t0.66,0.6z M50.6202,22.03q0.27,0.19,0.27,0.45t-0.25,0.45t-0.55,0.19t-0.55-0.22t-0.25-0.5q0-0.56,0.76-0.56q0.3,0,0.57,0.19z M46.4302,30.22q-1.02,0-1.02-1.32q0-1.08,1.18-2.99t1.9-1.93q0.2,0,0.45,0.16t0.25,0.32q-0.1,0.14-0.24,0.31t-0.3,0.37t-0.44,0.57t-0.54,0.71q-1.5,1.94-1.5,2.67t0.5,0.73q0.42,0,1.14-0.46q1.68-1.04,2.66-2.28q0.36-0.46,0.49-0.46t0.13,0.16t-0.46,0.64t-0.73,0.76t-0.37,0.37t-0.37,0.34t-0.41,0.35t-0.4,0.3t-0.46,0.29t-0.46,0.21q-0.42,0.18-1,0.18z M54.7936,29.7q-0.58,0.34-1.43,0.34t-1.3-0.56t-0.77-1.78q-0.36,0.36-0.5,0.36q-0.1,0-0.1-0.14t0.1-0.24q0.66-0.82,2.24-2.36l2.52-2.36q1.08-1.02,1.28-1.02q0.64,0,0.64,0.48q0,0.24-0.19,0.47t-0.28,0.36t-0.19,0.25q-0.36,0.62-0.73,2.56t-0.57,2.7q1.66-0.02,3.42-2.16q0.2-0.2,0.3-0.2t0.1,0.13t-0.18,0.35q-1.16,1.36-2.16,1.9q-0.6,0.3-1.56,0.5z M52.0936,27.48q0,0.68,0.45,1.11t1.01,0.43t0.86-0.22q0.4-0.22,0.79-1.84t0.47-2.86l0.08-0.68q-1.1,0.82-2.35,2.12t-1.29,1.72q-0.02,0.12-0.02,0.22z M62.857,29.7q-0.58,0.34-1.43,0.34t-1.3-0.56t-0.77-1.78q-0.36,0.36-0.5,0.36q-0.1,0-0.1-0.14t0.1-0.24q0.66-0.82,2.24-2.36l2.52-2.36q1.08-1.02,1.28-1.02q0.64,0,0.64,0.48q0,0.24-0.19,0.47t-0.28,0.36t-0.19,0.25q-0.36,0.62-0.73,2.56t-0.57,2.7q1.66-0.02,3.42-2.16q0.2-0.2,0.3-0.2t0.1,0.13t-0.18,0.35q-1.16,1.36-2.16,1.9q-0.6,0.3-1.56,0.5z M60.157,27.48q0,0.68,0.45,1.11t1.01,0.43t0.86-0.22q0.4-0.22,0.79-1.84t0.47-2.86l0.08-0.68q-1.1,0.82-2.35,2.12t-1.29,1.72q-0.02,0.12-0.02,0.22z M73.8804,24.02l0.28-0.06q0.22,0,0.42,0.18t0.2,0.28t-1.24,1.93t-1.24,2.55q0,0.06,0.02,0.12q0.1,0.46,0.44,0.46q1.04,0,3.8-3.44q0.06-0.08,0.14-0.08t0.08,0.15t-0.18,0.39q-2.56,3.42-3.9,3.42q-0.18,0-0.34-0.06q-0.88-0.34-0.88-1.32q0-0.34,0.08-0.68l-1.24,1.2q-1.18,1.04-1.71,1.04t-1.01-0.34q-0.54-0.4-0.54-1.06q0-1.46,2.04-3.49t3.74-2.03q0.66,0,0.88,0.46q0.06,0.16,0.1,0.27t0.06,0.11z M67.9004,28.94q0,0.72,0.5,0.72q1.16,0,3.16-2.54l2.12-2.92q-0.16-0.28-0.52-0.28q-1.22,0-3.24,1.89t-2.02,3.13z"/><path fill="#" d=""/></svg>
